<svg width="1239" height="979" viewBox="0 0 1239 979" fill="none" xmlns="http://www.w3.org/2000/svg">
<path d="M91.1754 192.743C88.6817 188.068 84.6294 185.73 79.0186 185.73C73.0961 185.73 69.0439 188.068 66.8619 192.743C66.8619 192.743 66.8619 196.796 66.8619 204.9C66.8619 213.316 66.8619 220.33 66.8619 225.941C66.8619 225.941 66.8619 234.201 66.8619 250.722C66.8619 267.554 66.8619 286.724 66.8619 308.232C66.8619 322.571 66.8619 336.91 66.8619 351.248C66.8619 365.587 66.8619 378.211 66.8619 389.121C66.8619 389.121 66.8619 390.835 66.8619 394.264C66.8619 397.693 66.8619 409.85 66.8619 430.734C68.4205 436.345 72.4727 439.151 79.0186 439.151C85.5646 439.151 89.6168 436.345 91.1754 430.734C91.1754 430.734 91.1754 424.656 91.1754 412.499C91.1754 400.654 91.1754 390.68 91.1754 382.575C91.1754 382.575 90.5519 382.575 89.3051 382.575C88.0582 382.575 86.9673 382.575 86.0321 382.575C86.0321 382.575 84.6294 376.341 81.824 363.873C78.7069 351.404 76.2132 340.962 74.343 332.546C74.343 332.546 77.7718 332.546 84.6294 332.546C91.7988 332.546 100.059 332.546 109.41 332.546C115.333 332.546 121.411 332.546 127.645 332.546C133.568 332.546 138.867 332.546 143.543 332.546C143.543 332.546 143.543 333.948 143.543 336.754C143.543 339.559 143.543 349.378 143.543 366.21C143.543 373.38 143.543 382.108 143.543 392.394C143.543 402.992 143.543 415.772 143.543 430.734C143.543 445.385 138.555 458.321 128.581 469.542C118.606 480.452 106.137 485.907 91.1754 485.907C91.1754 485.907 90.7078 485.907 89.7727 485.907C89.1492 485.907 88.5258 485.907 87.9024 485.907C86.0321 485.907 79.0186 485.907 66.8619 485.907C52.2115 485.907 39.7431 480.296 29.4567 469.075C19.4819 458.165 14.4945 445.385 14.4945 430.734C14.4945 430.734 14.4945 429.488 14.4945 426.994C14.4945 426.37 14.4945 424.812 14.4945 422.318C14.4945 417.954 14.4945 411.408 14.4945 402.68C14.4945 396.758 14.4945 389.433 14.4945 380.705C14.4945 371.977 14.4945 361.379 14.4945 348.91C14.4945 331.455 14.4945 309.947 14.4945 284.386C14.4945 258.826 14.4945 228.278 14.4945 192.743C14.4945 178.093 19.4819 165.469 29.4567 154.871C39.7431 143.961 52.2115 138.506 66.8619 138.506C66.8619 138.506 67.9529 138.506 70.1349 138.506C72.0052 138.506 79.0186 138.506 91.1754 138.506C106.137 138.506 118.606 143.805 128.581 154.403C138.555 165.001 143.543 177.781 143.543 192.743C143.543 192.743 143.543 196.796 143.543 204.9C143.543 212.693 143.543 219.395 143.543 225.005C143.543 225.005 136.997 225.005 123.905 225.005C110.813 225.005 99.9033 225.005 91.1754 225.005C91.1754 225.005 91.1754 223.603 91.1754 220.797C91.1754 217.992 91.1754 208.641 91.1754 192.743ZM277.734 485.907C254.356 485.907 219.288 485.907 172.532 485.907C172.532 447.255 172.532 389.277 172.532 311.973C172.532 273.321 172.532 215.498 172.532 138.506C195.91 138.506 230.978 138.506 277.734 138.506C272.435 150.662 264.486 169.053 253.888 193.679C247.342 193.679 237.679 193.679 224.899 193.679C224.899 212.693 224.899 241.37 224.899 279.711C233.004 279.711 245.16 279.711 261.369 279.711C261.369 291.556 261.369 309.167 261.369 332.546C253.265 332.546 241.108 332.546 224.899 332.546C224.899 354.365 224.899 387.095 224.899 430.734C236.744 430.734 254.356 430.734 277.734 430.734C277.734 442.891 277.734 461.282 277.734 485.907Z" fill="#A10908"/>
<path d="M580.271 488.786C556.893 488.786 521.825 488.786 475.069 488.786C475.069 450.134 475.069 392.156 475.069 314.852C475.069 276.199 475.069 218.377 475.069 141.385C498.447 141.385 533.515 141.385 580.271 141.385C574.972 153.541 567.023 171.932 556.425 196.557C549.879 196.557 540.216 196.557 527.436 196.557C527.436 215.572 527.436 244.249 527.436 282.59C535.541 282.59 547.697 282.59 563.906 282.59C563.906 294.435 563.906 312.046 563.906 335.425C555.802 335.425 543.645 335.425 527.436 335.425C527.436 357.244 527.436 389.974 527.436 433.613C539.281 433.613 556.893 433.613 580.271 433.613C580.271 445.77 580.271 464.161 580.271 488.786ZM634.976 301.292C626.248 295.37 620.014 288.044 616.274 279.317C612.533 270.9 610.039 260.614 608.793 248.457C608.793 248.457 608.793 245.496 608.793 239.573C608.793 236.768 608.793 233.028 608.793 228.352C608.793 214.948 608.793 203.883 608.793 195.155C608.793 180.504 613.78 167.724 623.755 156.814C634.041 146.216 646.51 140.917 661.16 140.917C661.16 140.917 662.251 140.917 664.433 140.917C666.303 140.917 673.317 140.917 685.473 140.917C700.436 140.917 712.904 146.216 722.879 156.814C732.853 167.412 737.841 180.193 737.841 195.155C737.841 195.155 737.841 201.857 737.841 215.26C737.841 228.664 737.841 239.729 737.841 248.457C737.841 248.457 731.295 245.496 718.203 239.573C705.111 233.651 694.201 228.664 685.473 224.611C685.473 224.611 685.473 223.676 685.473 221.806C685.473 220.247 685.473 214.013 685.473 203.103C682.98 198.428 678.928 196.09 673.317 196.09C667.394 196.09 663.342 198.428 661.16 203.103C661.16 203.103 661.16 204.35 661.16 206.844C661.16 209.026 661.16 217.286 661.16 231.625C661.16 244.717 664.121 255.003 670.044 262.484C675.966 269.654 684.227 276.979 694.825 284.46C708.228 294.123 718.826 303.942 726.619 313.916C734.1 324.203 737.841 337.606 737.841 354.127C737.841 354.127 737.841 351.633 737.841 346.646C737.841 341.97 737.841 338.074 737.841 334.957C737.841 334.957 737.841 339.944 737.841 349.919C737.841 359.894 737.841 371.271 737.841 384.051C737.841 392.779 737.841 401.507 737.841 410.235C737.841 418.963 737.841 426.6 737.841 433.146C737.841 447.484 732.698 460.265 722.411 471.486C712.125 482.396 699.812 487.851 685.473 487.851C685.473 487.851 684.071 487.851 681.265 487.851C680.018 487.851 678.304 487.851 676.122 487.851C670.2 487.851 665.212 487.851 661.16 487.851C646.821 487.851 634.509 482.396 624.222 471.486C613.936 460.265 608.793 447.484 608.793 433.146C608.793 433.146 608.793 429.717 608.793 422.859C608.793 416.313 608.793 408.832 608.793 400.416C608.793 394.805 608.793 389.039 608.793 383.116C608.793 377.505 608.793 372.518 608.793 368.154C608.793 368.154 615.339 371.115 628.43 377.038C641.522 382.649 652.432 387.324 661.16 391.065C661.16 391.065 661.16 392.468 661.16 395.273C661.16 397.767 661.16 406.806 661.16 422.392C661.16 429.249 665.212 432.834 673.317 433.146C681.421 433.146 685.473 429.561 685.473 422.392C685.473 422.392 685.473 421.457 685.473 419.586C685.473 417.716 685.473 411.014 685.473 399.481C685.473 380.778 683.603 365.349 679.863 353.192C676.122 340.724 666.771 328.255 651.809 315.787C651.809 315.787 651.029 315.163 649.471 313.916C648.224 312.67 643.393 308.462 634.976 301.292Z" fill="#A10908"/>
<path d="M840.925 298.413C832.197 292.491 825.963 285.166 822.223 276.438C818.482 268.022 815.988 257.735 814.742 245.578C814.742 245.578 814.742 242.617 814.742 236.695C814.742 233.889 814.742 230.149 814.742 225.473C814.742 212.069 814.742 201.004 814.742 192.276C814.742 177.625 819.729 164.845 829.704 153.935C839.99 143.337 852.459 138.038 867.109 138.038C867.109 138.038 868.2 138.038 870.382 138.038C872.252 138.038 879.266 138.038 891.422 138.038C906.385 138.038 918.853 143.337 928.828 153.935C938.802 164.534 943.79 177.314 943.79 192.276C943.79 192.276 943.79 198.978 943.79 212.381C943.79 225.785 943.79 236.85 943.79 245.578C943.79 245.578 937.244 242.617 924.152 236.695C911.06 230.772 900.15 225.785 891.422 221.732C891.422 221.732 891.422 220.797 891.422 218.927C891.422 217.369 891.422 211.134 891.422 200.224C888.929 195.549 884.877 193.211 879.266 193.211C873.343 193.211 869.291 195.549 867.109 200.224C867.109 200.224 867.109 201.471 867.109 203.965C867.109 206.147 867.109 214.407 867.109 228.746C867.109 241.838 870.07 252.124 875.993 259.605C881.915 266.775 890.176 274.1 900.774 281.581C914.177 291.244 924.775 301.063 932.568 311.038C940.049 321.324 943.79 334.728 943.79 351.248C943.79 351.248 943.79 348.755 943.79 343.767C943.79 339.092 943.79 335.195 943.79 332.078C943.79 332.078 943.79 337.065 943.79 347.04C943.79 357.015 943.79 368.392 943.79 381.172C943.79 389.9 943.79 398.628 943.79 407.356C943.79 416.084 943.79 423.721 943.79 430.267C943.79 444.606 938.647 457.386 928.36 468.607C918.074 479.517 905.761 484.972 891.422 484.972C891.422 484.972 890.02 484.972 887.214 484.972C885.967 484.972 884.253 484.972 882.071 484.972C876.149 484.972 871.161 484.972 867.109 484.972C852.77 484.972 840.458 479.517 830.171 468.607C819.885 457.386 814.742 444.606 814.742 430.267C814.742 430.267 814.742 426.838 814.742 419.98C814.742 413.435 814.742 405.953 814.742 397.537C814.742 391.926 814.742 386.16 814.742 380.237C814.742 374.627 814.742 369.639 814.742 365.275C814.742 365.275 821.288 368.236 834.379 374.159C847.471 379.77 858.381 384.445 867.109 388.186C867.109 388.186 867.109 389.589 867.109 392.394C867.109 394.888 867.109 403.927 867.109 419.513C867.109 426.37 871.161 429.955 879.266 430.267C887.37 430.267 891.422 426.682 891.422 419.513C891.422 419.513 891.422 418.578 891.422 416.707C891.422 414.837 891.422 408.135 891.422 396.602C891.422 377.899 889.552 362.47 885.812 350.313C882.071 337.845 872.72 325.376 857.758 312.908C857.758 312.908 856.978 312.284 855.42 311.038C854.173 309.791 849.341 305.583 840.925 298.413Z" fill="#A10908"/>
<path d="M371.338 139.611H308.009V486.481H355.505V305.13L397.245 486.481H450.499V139.611H405.881V322.402L371.338 139.611Z" fill="#A10908" stroke="#A10908" stroke-width="2.87859"/>
<path d="M806.004 141.051H754.189V487.921H806.004V141.051Z" fill="#A10908" stroke="#A10908" stroke-width="2.87859"/>
<path d="M1141.48 539.899C1113.96 539.899 1093.24 539.899 1079.3 539.899C1079.3 511.284 1079.3 489.822 1079.3 475.515C1024.27 475.515 982.994 475.515 955.479 475.515C1010.51 322.532 1051.78 207.887 1079.3 131.58C1106.81 131.58 1127.54 131.58 1141.48 131.58C1141.48 255.58 1141.48 348.58 1141.48 410.58C1150.28 410.58 1156.7 410.58 1160.74 410.58C1173.58 439.195 1183.12 460.84 1189.35 475.515C1168.08 475.515 1152.12 475.515 1141.48 475.515C1141.48 504.13 1141.48 525.592 1141.48 539.899ZM1048.48 410.58C1062.05 410.58 1072.33 410.58 1079.3 410.58C1079.3 402.142 1079.3 395.722 1079.3 391.319C1079.3 359.769 1079.3 336.106 1079.3 320.331C1065.35 360.319 1055.08 390.402 1048.48 410.58Z" fill="#A10908"/>
<path d="M1116.81 978.72L1078.94 538.846V474.086H1142.47V538.846L1116.81 978.72Z" fill="#A10908" stroke="#A10908" stroke-width="2.44374"/>
<path d="M67.7043 120.854L63.4728 104.014H42.8333L38.2564 120.422L27.2026 119.558L34.8021 98.5734L46.374 61.4396L61.832 60.317L72.9721 97.278L80.1398 118.954L67.7043 120.854ZM54.0598 71.5435H52.9372L45.5104 94.86H60.8821L54.0598 71.5435ZM100.57 60.4033L99.3611 97.9689L100.397 120.422H88.3074L89.3436 99.437L88.3074 62.5623L100.57 60.4033ZM107.458 70.7662L108.408 60.8351H149.428L148.478 70.7662L133.451 69.4709L133.106 97.9689L134.142 120.422H122.052L123.089 99.437L122.743 69.5572L107.458 70.7662ZM190.501 121.372C182.96 121.372 176.886 118.839 172.28 113.772C167.674 108.706 165.371 101.999 165.371 93.651C165.371 84.1517 168.25 76.1492 174.007 69.6436C179.764 63.138 186.846 59.8852 195.251 59.8852C198.59 59.8852 201.67 60.2018 204.491 60.8351C207.37 61.4108 209.414 62.0153 210.623 62.6486L212.35 63.5986L207.341 75.6023C205.614 74.4508 203.282 73.3858 200.346 72.407C197.41 71.3707 194.819 70.8526 192.574 70.8526C187.911 70.8526 184.169 72.4934 181.348 75.775C178.527 79.0566 177.116 83.4032 177.116 88.815C177.116 96.1266 178.44 101.826 181.088 105.914C183.794 110.001 187.537 112.045 192.315 112.045C195.424 112.045 198.36 111.613 201.123 110.75V97.3644H189.983L190.847 88.6423H211.573L210.796 102.719L211.4 117.658C202.937 120.134 195.971 121.372 190.501 121.372ZM242.294 121.372C238.206 121.372 232.305 121.055 224.59 120.422L225.627 99.437L224.59 60.8351H247.648C255.42 60.8351 261.494 63.1668 265.869 67.8301C270.245 72.4934 272.433 78.9702 272.433 87.2605C272.433 97.7386 269.727 106.058 264.315 112.218C258.903 118.321 251.563 121.372 242.294 121.372ZM244.539 70.1617C240.739 70.1617 238.062 70.1905 236.508 70.2481L235.644 97.9689L236.249 111.959C241.085 112.304 244.338 112.477 246.007 112.477C250.555 112.477 254.125 110.635 256.716 106.95C259.364 103.265 260.688 97.9113 260.688 90.8876C260.688 83.8638 259.393 78.6536 256.802 75.2568C254.269 71.8601 250.181 70.1617 244.539 70.1617ZM315.012 121.199L300.591 98.8325L286.687 121.285L277.36 116.708L294.373 90.8012L276.065 67.3119L286.773 60.317L300.677 81.9064L314.062 59.9715L323.13 65.3257L307.326 89.9376L325.634 114.463L315.012 121.199ZM349.008 97.4507H344.085V97.9689L345.121 120.422H333.55L334.586 99.437L333.55 60.8351H352.289C357.816 60.8351 362.22 62.332 365.502 65.3257C368.783 68.3194 370.424 72.2919 370.424 77.2431C370.424 80.9852 369.445 84.4107 367.488 87.5196C365.588 90.5709 362.997 92.9889 359.716 94.7737L374.742 116.018L364.293 121.372L350.821 97.3644C350.418 97.422 349.814 97.4507 349.008 97.4507ZM349.18 69.5572H344.949L344.344 89.0741H350.217C353.095 89.0741 355.312 88.1241 356.866 86.2243C358.478 84.3244 359.284 81.6185 359.284 78.1066C359.284 72.407 355.916 69.5572 349.18 69.5572ZM415.624 60.8351C421.151 60.8351 425.555 62.4183 428.836 65.5848C432.118 68.6937 433.759 72.9828 433.759 78.4521C433.759 83.9214 431.686 88.6135 427.541 92.5284C423.396 96.3857 418.33 98.3143 412.342 98.3143H407.42L408.456 120.422H396.884L397.92 99.437L396.884 60.8351H415.624ZM412.515 69.5572H408.283L407.679 89.9376H413.551C416.43 89.9376 418.646 88.9877 420.201 87.0878C421.813 85.188 422.619 82.4821 422.619 78.9702C422.619 72.6949 419.251 69.5572 412.515 69.5572ZM456.28 97.4507H451.357V97.9689L452.394 120.422H440.822L441.858 99.437L440.822 60.8351H459.561C465.088 60.8351 469.493 62.332 472.774 65.3257C476.056 68.3194 477.697 72.2919 477.697 77.2431C477.697 80.9852 476.718 84.4107 474.76 87.5196C472.861 90.5709 470.27 92.9889 466.988 94.7737L482.014 116.018L471.565 121.372L458.093 97.3644C457.69 97.422 457.086 97.4507 456.28 97.4507ZM456.453 69.5572H452.221L451.617 89.0741H457.489C460.367 89.0741 462.584 88.1241 464.138 86.2243C465.75 84.3244 466.556 81.6185 466.556 78.1066C466.556 72.407 463.188 69.5572 456.453 69.5572ZM490.832 120.422L491.868 99.437L490.832 60.8351H523.216L522.266 70.0754H502.835L502.317 85.3607H519.589L518.639 94.5146H501.972L501.885 97.9689L502.49 111.268H523.389L522.439 120.422H490.832ZM534.286 103.237C539.179 108.13 544.073 110.577 548.967 110.577C551.5 110.577 553.515 110.001 555.012 108.85C556.566 107.641 557.343 106.115 557.343 104.273C557.343 102.373 556.422 100.79 554.58 99.5233C552.738 98.1992 550.492 97.0477 547.844 96.069C545.253 95.0903 542.662 93.9964 540.072 92.7874C537.481 91.5209 535.264 89.7361 533.422 87.4333C531.58 85.1304 530.659 82.3382 530.659 79.0566C530.659 73.8751 532.818 69.4133 537.136 65.6711C541.453 61.8714 546.577 59.9715 552.507 59.9715C555.213 59.9715 557.833 60.2594 560.366 60.8351C562.899 61.4108 565.346 62.2456 567.706 63.3395L561.834 75.9477C560.222 74.6811 558.005 73.5297 555.184 72.4934C552.421 71.3995 549.974 70.8526 547.844 70.8526C545.771 70.8526 544.073 71.3707 542.749 72.407C541.482 73.3858 540.849 74.7099 540.849 76.3795C540.849 78.0491 541.77 79.5459 543.612 80.8701C545.455 82.1367 547.671 83.2593 550.262 84.238C552.91 85.2168 555.53 86.3106 558.12 87.5196C560.769 88.6711 563.014 90.3982 564.856 92.7011C566.699 95.0039 567.62 97.7962 567.62 101.078C567.62 106.49 565.461 111.239 561.143 115.327C556.825 119.357 551.788 121.372 546.03 121.372C541.713 121.372 537.884 120.336 534.545 118.263C531.609 116.478 529.536 114.895 528.327 113.513L527.55 112.563L534.286 103.237ZM576.768 120.422L577.804 99.437L576.768 60.8351H609.152L608.202 70.0754H588.771L588.253 85.3607H605.525L604.575 94.5146H587.908L587.821 97.9689L588.426 111.268H609.324L608.375 120.422H576.768ZM664.955 60.6624L663.832 97.9689L664.782 118.522L654.592 120.681L628.857 79.0566V97.9689L630.066 120.422H619.272L620.308 99.437L619.272 61.0942L629.635 60.576L655.283 102.805L654.419 61.9578L664.955 60.6624ZM671.903 70.7662L672.853 60.8351H713.873L712.923 70.7662L697.896 69.4709L697.551 97.9689L698.587 120.422H686.497L687.533 99.437L687.188 69.5572L671.903 70.7662ZM721.759 103.237C726.653 108.13 731.547 110.577 736.44 110.577C738.973 110.577 740.988 110.001 742.485 108.85C744.04 107.641 744.817 106.115 744.817 104.273C744.817 102.373 743.896 100.79 742.053 99.5233C740.211 98.1992 737.966 97.0477 735.318 96.069C732.727 95.0903 730.136 93.9964 727.545 92.7874C724.955 91.5209 722.738 89.7361 720.896 87.4333C719.054 85.1304 718.132 82.3382 718.132 79.0566C718.132 73.8751 720.291 69.4133 724.609 65.6711C728.927 61.8714 734.051 59.9715 739.981 59.9715C742.687 59.9715 745.306 60.2594 747.839 60.8351C750.373 61.4108 752.819 62.2456 755.18 63.3395L749.308 75.9477C747.695 74.6811 745.479 73.5297 742.658 72.4934C739.895 71.3995 737.448 70.8526 735.318 70.8526C733.245 70.8526 731.547 71.3707 730.222 72.407C728.956 73.3858 728.323 74.7099 728.323 76.3795C728.323 78.0491 729.244 79.5459 731.086 80.8701C732.928 82.1367 735.145 83.2593 737.736 84.238C740.384 85.2168 743.003 86.3106 745.594 87.5196C748.242 88.6711 750.488 90.3982 752.33 92.7011C754.172 95.0039 755.093 97.7962 755.093 101.078C755.093 106.49 752.935 111.239 748.617 115.327C744.299 119.357 739.261 121.372 733.504 121.372C729.186 121.372 725.358 120.336 722.018 118.263C719.082 116.478 717.01 114.895 715.801 113.513L715.024 112.563L721.759 103.237Z" fill="black"/>
<path d="M691.34 621.174H691.815L693.844 613.748L697.99 596.519L702.869 597.297L698.162 614.439L695.269 626.226L687.368 626.788L684.906 615.259L683.438 609.559L682.143 614.439L679.25 626.226L671.478 626.788L668.887 615.259L664.396 597.599L670.01 596.519L673.507 613.186L675.45 621.174H675.925L678.214 613.186L681.366 601.528L680.373 597.599L686.072 596.519L689.483 613.186L691.34 621.174ZM729.933 596.563L729.329 615.345L729.847 626.572H723.802L724.32 616.079L724.234 613.791H712.619L712.576 615.345L713.094 626.572H707.049L707.567 616.079L707.049 597.642L713.18 596.563L712.748 609.214H724.104L723.802 597.642L729.933 596.563ZM754.305 626.788L752.189 618.368H741.869L739.581 626.572L734.054 626.14L737.854 615.648L743.64 597.081L751.369 596.519L756.939 615L760.523 625.838L754.305 626.788ZM747.483 602.133H746.921L743.208 613.791H750.894L747.483 602.133ZM761.152 601.744L761.627 596.778H782.137L781.662 601.744L774.149 601.096L773.976 615.345L774.494 626.572H768.449L768.967 616.079L768.795 601.139L761.152 601.744ZM785.605 626.572L786.124 616.079L785.605 596.778H801.797L801.322 601.399H791.607L791.348 609.041H799.984L799.509 613.618H791.175L791.132 615.345L791.435 621.995H801.884L801.409 626.572H785.605ZM816.184 621.174H816.702L818.861 613.748L823.395 596.519L828.62 597.297L823.481 614.439L820.113 626.226L812.125 626.788L809.06 615.259L804.051 597.599L810.182 596.519L814.111 613.186L816.184 621.174ZM832.706 626.572L833.224 616.079L832.706 596.778H848.898L848.423 601.399H838.708L838.448 609.041H847.084L846.609 613.618H838.276L838.233 615.345L838.535 621.995H848.984L848.509 626.572H832.706ZM861.687 615.086H859.226V615.345L859.744 626.572H853.958L854.476 616.079L853.958 596.778H863.328C866.091 596.778 868.293 597.527 869.934 599.024C871.575 600.521 872.395 602.507 872.395 604.982C872.395 606.853 871.906 608.566 870.927 610.121C869.977 611.646 868.682 612.855 867.041 613.748L874.554 624.37L869.329 627.047L862.594 615.043C862.392 615.072 862.09 615.086 861.687 615.086ZM861.773 601.139H859.657L859.355 610.898H862.291C863.731 610.898 864.839 610.423 865.616 609.473C866.422 608.523 866.825 607.17 866.825 605.414C866.825 602.564 865.141 601.139 861.773 601.139ZM909.848 621.174H910.323L912.353 613.748L916.498 596.519L921.377 597.297L916.671 614.439L913.778 626.226L905.876 626.788L903.415 615.259L901.947 609.559L900.651 614.439L897.758 626.226L889.986 626.788L887.395 615.259L882.905 597.599L888.518 596.519L892.016 613.186L893.959 621.174H894.434L896.722 613.186L899.874 601.528L898.881 597.599L904.581 596.519L907.992 613.186L909.848 621.174ZM925.557 626.572L926.075 616.079L925.557 596.778H941.749L941.274 601.399H931.559L931.3 609.041H939.936L939.461 613.618H931.127L931.084 615.345L931.386 621.995H941.835L941.36 626.572H925.557ZM977.695 621.174H978.17L980.199 613.748L984.344 596.519L989.224 597.297L984.517 614.439L981.624 626.226L973.722 626.788L971.261 615.259L969.793 609.559L968.498 614.439L965.605 626.226L957.833 626.788L955.242 615.259L950.751 597.599L956.364 596.519L959.862 613.186L961.805 621.174H962.28L964.568 613.186L967.72 601.528L966.727 597.599L972.427 596.519L975.838 613.186L977.695 621.174ZM1010.85 626.788L1008.73 618.368H998.412L996.124 626.572L990.597 626.14L994.397 615.648L1000.18 597.081L1007.91 596.519L1013.48 615L1017.07 625.838L1010.85 626.788ZM1004.03 602.133H1003.46L999.751 613.791H1007.44L1004.03 602.133ZM1043.99 596.692L1043.43 615.345L1043.9 625.622L1038.81 626.701L1025.94 605.889V615.345L1026.55 626.572H1021.15L1021.67 616.079L1021.15 596.908L1026.33 596.649L1039.15 617.763L1038.72 597.34L1043.99 596.692ZM1047.46 601.744L1047.94 596.778H1068.45L1067.97 601.744L1060.46 601.096L1060.29 615.345L1060.81 626.572H1054.76L1055.28 616.079L1055.11 601.139L1047.46 601.744Z" fill="black"/>
<path d="M675.543 568.913H672.095V569.276L672.821 585H664.717L665.443 570.304L664.717 543.27H677.841C681.711 543.27 684.796 544.318 687.094 546.415C689.392 548.512 690.541 551.294 690.541 554.761C690.541 557.382 689.856 559.781 688.485 561.958C687.154 564.095 685.34 565.788 683.042 567.038L693.565 581.916L686.247 585.665L676.813 568.852C676.531 568.893 676.107 568.913 675.543 568.913ZM675.664 549.378H672.7L672.277 563.046H676.389C678.405 563.046 679.958 562.381 681.046 561.051C682.175 559.72 682.74 557.825 682.74 555.366C682.74 551.374 680.381 549.378 675.664 549.378ZM699.74 585L700.466 570.304L699.74 543.27H722.419L721.754 549.741H708.147L707.784 560.446H719.879L719.214 566.857H707.542L707.481 569.276L707.905 578.589H722.54L721.875 585H699.74ZM753.94 585.302L750.976 573.509H736.522L733.317 585L725.576 584.395L730.898 569.699L739.002 543.694L749.827 542.907L757.629 568.792L762.649 583.972L753.94 585.302ZM744.384 550.769H743.598L738.397 567.099H749.162L744.384 550.769ZM768.368 585L769.094 570.304L768.368 544.48L776.956 542.968L776.11 569.276L776.533 579.073L788.931 578.106L788.266 585H768.368ZM802.707 542.968L801.86 569.276L802.586 585H794.119L794.845 570.304L794.119 544.48L802.707 542.968ZM807.53 550.225L808.196 543.27H836.923L836.257 550.225L825.734 549.318L825.492 569.276L826.218 585H817.751L818.477 570.304L818.235 549.378L807.53 550.225ZM854.058 561.111H854.783L859.259 552.886L863.795 542.907L871.173 543.996L865.609 554.096L857.747 569.457L858.412 585H849.945L850.55 570.485L842.93 555.003L837.124 544.419L845.651 542.907L849.582 552.1L854.058 561.111ZM898.426 585.665C893.951 585.665 890.181 583.79 887.117 580.041C884.053 576.291 882.521 571.695 882.521 566.252C882.521 559.599 884.355 553.995 888.024 549.439C891.734 544.883 896.269 542.605 901.632 542.605C903.728 542.605 905.664 542.827 907.438 543.27C909.252 543.673 910.542 544.097 911.308 544.54L912.397 545.205L908.284 553.612C907.357 552.806 906.047 552.06 904.353 551.374C902.66 550.648 901.128 550.286 899.757 550.286C896.975 550.286 894.737 551.435 893.044 553.733C891.391 556.031 890.564 559.317 890.564 563.591C890.564 567.824 891.431 571.312 893.165 574.053C894.899 576.755 897.257 578.106 900.241 578.106C902.176 578.106 903.93 577.501 905.502 576.291C907.075 575.082 908.184 573.469 908.829 571.453L913.848 574.356C912.518 577.904 910.482 580.686 907.74 582.702C904.998 584.677 901.894 585.665 898.426 585.665ZM943.288 585.302L940.324 573.509H925.87L922.665 585L914.924 584.395L920.246 569.699L928.35 543.694L939.175 542.907L946.977 568.792L951.997 583.972L943.288 585.302ZM933.732 550.769H932.946L927.745 567.099H938.51L933.732 550.769ZM989.709 543.149L988.923 569.276L989.589 583.669L982.452 585.181L964.43 556.031V569.276L965.276 585H957.717L958.442 570.304L957.717 543.452L964.974 543.089L982.936 572.662L982.331 544.056L989.709 543.149ZM1021.87 543.27C1025.74 543.27 1028.8 544.157 1031.06 545.931C1033.32 547.665 1034.45 550.003 1034.45 552.947C1034.45 557.664 1032.51 560.95 1028.64 562.805C1033.88 564.619 1036.5 567.965 1036.5 572.844C1036.5 576.513 1034.93 579.577 1031.79 582.037C1028.64 584.456 1024.69 585.665 1019.93 585.665C1017.43 585.665 1013.7 585.444 1008.74 585L1009.47 570.304L1008.74 543.27H1021.87ZM1021.08 567.038H1016.18L1016.12 569.276L1016.55 579.134C1018.89 579.335 1020.68 579.436 1021.93 579.436C1024.07 579.436 1025.72 578.912 1026.89 577.864C1028.1 576.775 1028.7 575.203 1028.7 573.146C1028.7 571.09 1028.1 569.558 1026.89 568.55C1025.68 567.542 1023.74 567.038 1021.08 567.038ZM1019.69 549.378H1016.73L1016.37 561.172H1020.3C1022.35 561.172 1023.92 560.627 1025.01 559.539C1026.1 558.41 1026.65 556.817 1026.65 554.761C1026.65 551.173 1024.33 549.378 1019.69 549.378ZM1043.83 585L1044.55 570.304L1043.83 543.27H1066.51L1065.84 549.741H1052.23L1051.87 560.446H1063.97L1063.3 566.857H1051.63L1051.57 569.276L1051.99 578.589H1066.63L1065.96 585H1043.83Z" fill="black"/>
</svg>
