<svg width="1479" height="1560" viewBox="0 0 1479 1560" fill="none" xmlns="http://www.w3.org/2000/svg">
<path d="M383.5 -12L0 1585L837.5 1597.5L1207 -2.5L383.5 -12Z" fill="#D2AE93"/>
<path d="M274.858 91.251C283.957 91.251 291.77 94.7126 298.297 101.636C304.825 108.757 308.089 116.966 308.089 126.262C308.089 126.262 308.089 129.032 308.089 134.57C308.089 140.109 308.089 146.537 308.089 153.856C308.089 158.603 308.089 163.35 308.089 168.098C308.089 173.043 308.089 177.296 308.089 180.856C308.089 190.153 304.825 198.065 298.297 204.593C291.77 211.12 283.957 214.384 274.858 214.384C274.858 214.384 272.88 214.384 268.923 214.384C265.165 214.384 262 214.384 259.429 214.384C259.429 214.384 259.429 219.329 259.429 229.219C259.429 239.109 259.429 250.483 259.429 263.34C259.429 271.846 259.429 280.351 259.429 288.857C259.429 297.56 259.429 305.077 259.429 311.407C259.429 311.407 258.638 318.33 257.055 332.176C255.275 346.022 253.297 361.847 251.121 379.649C249.737 391.517 248.253 403.385 246.671 415.254C245.286 427.122 244 437.605 242.813 446.704C242.813 446.704 241.923 439.781 240.143 425.935C238.561 412.089 236.681 396.264 234.506 378.462C232.923 366.594 231.44 354.726 230.055 342.857C228.473 330.989 227.187 320.506 226.198 311.407C226.198 311.407 226.198 309.923 226.198 306.956C226.198 303.791 226.198 299.538 226.198 294.198C226.198 287.67 226.198 279.857 226.198 270.758C226.198 265.615 226.198 259.978 226.198 253.846C226.198 237.23 226.198 219.428 226.198 200.439C226.198 181.054 226.198 161.669 226.198 142.284C226.198 122.9 226.198 105.889 226.198 91.251C226.198 91.251 228.67 91.251 233.616 91.251C238.561 91.251 244.198 91.251 250.528 91.251C254.879 91.251 259.231 91.251 263.583 91.251C267.737 91.251 271.495 91.251 274.858 91.251ZM259.429 180.856C259.429 180.856 259.923 180.856 260.912 180.856C261.308 180.856 261.803 180.856 262.396 180.856C264.374 180.856 265.956 180.856 267.143 180.856C269.319 180.856 271.099 180.164 272.484 178.779C274.066 177.197 274.858 175.318 274.858 173.142C274.858 173.142 274.858 172.647 274.858 171.658C274.858 170.471 274.858 166.515 274.858 159.79C274.858 156.823 274.858 153.263 274.858 149.109C274.858 144.757 274.858 139.614 274.858 133.68C274.858 131.702 274.066 129.922 272.484 128.339C271.099 126.955 269.319 126.262 267.143 126.262C267.143 126.262 266.154 126.262 264.176 126.262C262.396 126.262 260.814 126.262 259.429 126.262C259.429 126.262 259.429 128.834 259.429 133.977C259.429 134.174 259.429 134.372 259.429 134.57C259.429 140.109 259.429 146.537 259.429 153.856C259.429 158.603 259.429 163.35 259.429 168.098C259.429 173.043 259.429 177.296 259.429 180.856ZM367.43 91.5477C367.43 91.5477 367.726 91.5477 368.32 91.5477C368.715 91.5477 370.397 91.5477 373.364 91.5477C383.254 91.5477 391.562 94.9104 398.287 101.636C405.012 108.361 408.375 116.669 408.375 126.559C408.375 126.559 408.375 130.713 408.375 139.021C408.375 147.328 408.375 154.252 408.375 159.79C408.375 159.79 408.375 160.68 408.375 162.46C408.375 164.241 408.375 170.471 408.375 181.153C408.375 187.087 407.386 193.614 405.408 200.735C403.232 207.856 397.694 212.505 388.793 214.681C388.793 214.681 390.474 219.626 393.837 229.516C397.199 239.406 401.056 250.78 405.408 263.637C408.375 272.143 411.342 280.648 414.309 289.154C417.276 297.659 419.848 305.176 422.024 311.703C422.024 311.703 420.243 311.703 416.683 311.703C414.705 311.703 412.331 311.703 409.562 311.703C401.254 311.703 394.331 311.703 388.793 311.703C388.793 311.703 387.309 306.758 384.342 296.868C381.375 286.978 378.012 275.604 374.254 262.747C371.683 254.241 369.111 245.637 366.54 236.933C363.968 228.428 361.693 221.01 359.715 214.681C359.715 214.681 359.715 219.626 359.715 229.516C359.715 239.406 359.715 250.78 359.715 263.637C359.715 272.143 359.715 280.648 359.715 289.154C359.715 297.659 359.715 305.176 359.715 311.703C359.715 311.703 355.562 311.703 347.254 311.703C338.946 311.703 332.023 311.703 326.484 311.703C326.484 311.703 326.484 310.22 326.484 307.253C326.484 304.088 326.484 299.835 326.484 294.494C326.484 287.967 326.484 280.154 326.484 271.055C326.484 265.714 326.484 260.077 326.484 254.142C326.484 237.329 326.484 219.527 326.484 200.735C326.484 181.351 326.484 161.966 326.484 142.581C326.484 123.196 326.484 106.185 326.484 91.5477C326.484 91.5477 328.561 91.5477 332.715 91.5477C336.869 91.5477 341.616 91.5477 346.957 91.5477C350.715 91.5477 354.375 91.5477 357.935 91.5477C361.496 91.5477 364.66 91.5477 367.43 91.5477ZM359.715 181.153C359.715 181.153 360.21 181.153 361.199 181.153C361.595 181.153 362.089 181.153 362.682 181.153C364.66 181.153 366.243 181.153 367.43 181.153C369.606 181.153 371.386 180.362 372.77 178.779C374.353 177.395 375.144 175.614 375.144 173.438C375.144 173.438 375.144 172.944 375.144 171.955C375.144 170.768 375.144 166.812 375.144 160.087C375.144 157.12 375.144 153.559 375.144 149.405C375.144 145.054 375.144 139.911 375.144 133.977C375.144 131.801 374.353 130.021 372.77 128.636C371.386 127.251 369.606 126.559 367.43 126.559C367.43 126.559 366.441 126.559 364.463 126.559C362.682 126.559 361.1 126.559 359.715 126.559C359.715 126.559 359.715 129.13 359.715 134.273C359.715 134.471 359.715 134.669 359.715 134.867C359.715 140.405 359.715 146.735 359.715 153.856C359.715 158.801 359.715 163.647 359.715 168.394C359.715 173.142 359.715 177.395 359.715 181.153ZM473.65 91.5477C473.65 91.5477 473.65 93.0313 473.65 95.9983C473.65 99.1632 473.65 103.416 473.65 108.757C473.65 119.042 473.65 132.493 473.65 149.109C473.65 165.922 473.65 183.724 473.65 202.516C473.65 221.9 473.65 241.285 473.65 260.67C473.65 280.055 473.65 297.066 473.65 311.703C473.65 311.703 471.87 311.703 468.31 311.703C466.529 311.703 464.156 311.703 461.189 311.703C452.881 311.703 445.958 311.703 440.419 311.703C440.419 311.703 440.419 310.22 440.419 307.253C440.419 304.088 440.419 299.835 440.419 294.494C440.419 287.967 440.419 280.154 440.419 271.055C440.419 265.714 440.419 260.077 440.419 254.142C440.419 237.329 440.419 219.527 440.419 200.735C440.419 181.351 440.419 161.966 440.419 142.581C440.419 123.196 440.419 106.185 440.419 91.5477C440.419 91.5477 441.903 91.5477 444.87 91.5477C447.639 91.5477 450.903 91.5477 454.661 91.5477C459.211 91.5477 463.562 91.5477 467.716 91.5477C471.672 91.5477 473.65 91.5477 473.65 91.5477ZM598.563 92.1411C572.849 174.428 553.662 236.142 541.003 277.285C556.827 277.285 568.695 277.285 576.607 277.285C583.333 292.912 588.377 304.582 591.739 312.297C555.739 312.297 528.64 312.297 510.442 312.297C502.332 312.297 496.299 312.297 492.343 312.297C518.651 230.01 538.332 168.197 551.387 126.856C536.156 126.856 524.783 126.856 517.266 126.856C510.541 111.427 505.497 99.8555 502.134 92.1411C529.233 92.1411 549.607 92.1411 563.255 92.1411C579.08 92.1411 590.849 92.1411 598.563 92.1411ZM683.718 91.8444C683.718 107.273 683.718 118.845 683.718 126.559C668.883 126.559 657.707 126.559 650.19 126.559C650.19 150.889 650.19 169.186 650.19 181.45C660.476 181.45 668.19 181.45 673.333 181.45C673.333 196.285 673.333 207.362 673.333 214.681C663.047 214.681 655.333 214.681 650.19 214.681C650.19 242.373 650.19 263.142 650.19 276.989C658.3 276.989 664.432 276.989 668.586 276.989C675.311 292.615 680.355 304.286 683.718 312C654.047 312 631.794 312 616.959 312C616.959 238.615 616.959 183.625 616.959 147.032C616.959 122.504 616.959 104.108 616.959 91.8444C646.63 91.8444 668.883 91.8444 683.718 91.8444ZM788.674 91.5477C797.773 91.5477 805.586 94.8115 812.114 101.339C818.641 107.867 821.905 115.68 821.905 124.779C821.905 124.779 821.905 124.977 821.905 125.372C821.905 125.768 821.905 126.163 821.905 126.559C821.905 126.559 821.905 129.328 821.905 134.867C821.905 140.405 821.905 146.735 821.905 153.856C821.905 158.801 821.905 163.647 821.905 168.394C821.905 173.142 821.905 177.395 821.905 181.153C821.905 190.45 818.641 198.362 812.114 204.889C805.586 211.417 797.773 214.681 788.674 214.681C788.674 214.681 786.696 214.681 782.74 214.681C778.982 214.681 775.817 214.681 773.245 214.681C773.245 214.681 773.245 219.626 773.245 229.516C773.245 239.406 773.245 250.78 773.245 263.637C773.245 272.143 773.245 280.648 773.245 289.154C773.245 297.659 773.245 305.176 773.245 311.703C773.245 311.703 771.465 311.703 767.905 311.703C766.124 311.703 763.751 311.703 760.784 311.703C752.476 311.703 745.553 311.703 740.014 311.703C740.014 311.703 740.014 310.22 740.014 307.253C740.014 304.088 740.014 299.835 740.014 294.494C740.014 287.967 740.014 280.154 740.014 271.055C740.014 265.714 740.014 260.077 740.014 254.142C740.014 237.329 740.014 219.527 740.014 200.735C740.014 181.351 740.014 161.966 740.014 142.581C740.014 123.196 740.014 106.185 740.014 91.5477C740.014 91.5477 742.487 91.5477 747.432 91.5477C752.377 91.5477 758.014 91.5477 764.344 91.5477C768.696 91.5477 773.047 91.5477 777.399 91.5477C781.553 91.5477 785.311 91.5477 788.674 91.5477ZM773.245 181.153C773.245 181.153 773.74 181.153 774.729 181.153C775.124 181.153 775.619 181.153 776.212 181.153C778.19 181.153 779.773 181.153 780.96 181.153C783.135 181.153 784.916 180.362 786.3 178.779C787.883 177.395 788.674 175.614 788.674 173.438C788.674 173.438 788.674 172.944 788.674 171.955C788.674 170.768 788.674 166.812 788.674 160.087C788.674 157.12 788.674 153.559 788.674 149.405C788.674 145.054 788.674 139.911 788.674 133.977C788.674 131.801 787.883 130.021 786.3 128.636C784.916 127.251 783.135 126.559 780.96 126.559C780.96 126.559 779.971 126.559 777.993 126.559C776.212 126.559 774.63 126.559 773.245 126.559C773.245 126.559 773.245 129.13 773.245 134.273C773.245 134.471 773.245 134.669 773.245 134.867C773.245 140.405 773.245 146.735 773.245 153.856C773.245 158.801 773.245 163.647 773.245 168.394C773.245 173.142 773.245 177.395 773.245 181.153ZM840.301 126.559C840.301 117.262 843.564 109.053 850.092 101.932C856.62 95.0093 864.433 91.5477 873.532 91.5477C874.916 91.5477 876.499 91.5477 878.279 91.5477C880.257 91.5477 881.246 91.5477 881.246 91.5477C882.433 91.5477 884.015 91.5477 885.993 91.5477C887.971 91.5477 888.96 91.5477 888.96 91.5477C898.059 91.5477 905.873 95.0093 912.4 101.932C918.928 109.053 922.191 117.262 922.191 126.559C922.191 149.109 922.191 168.493 922.191 184.713C922.191 200.735 922.191 214.285 922.191 225.362C922.191 233.076 922.191 239.703 922.191 245.241C922.191 250.78 922.191 255.428 922.191 259.186C922.191 268.088 922.191 273.23 922.191 274.615C922.191 276 922.191 276.692 922.191 276.692C922.191 286.78 919.027 294.89 912.697 301.022C906.367 306.956 898.455 310.516 888.96 311.703C887.971 311.901 887.081 312 886.29 312C885.894 312 885.499 312 885.103 312C883.916 311.802 882.631 311.703 881.246 311.703C879.861 311.703 878.576 311.802 877.389 312C876.202 312 874.916 311.901 873.532 311.703C864.037 310.516 856.125 306.956 849.795 301.022C843.466 294.89 840.301 286.78 840.301 276.692C840.301 254.142 840.301 234.758 840.301 218.538C840.301 202.516 840.301 188.966 840.301 177.889C840.301 170.175 840.301 163.548 840.301 158.01C840.301 152.471 840.301 147.823 840.301 144.065C840.301 138.526 840.301 134.471 840.301 131.9C840.301 130.317 840.301 129.229 840.301 128.636C840.301 127.251 840.301 126.559 840.301 126.559ZM873.532 276.692C873.532 278.868 874.323 280.747 875.905 282.329C877.29 283.714 879.07 284.406 881.246 284.406C881.246 284.406 881.246 283.417 881.246 281.439C881.246 279.659 881.246 278.077 881.246 276.692C881.246 276.692 881.246 277.088 881.246 277.879C881.246 278.472 881.246 280.648 881.246 284.406C883.422 284.406 885.202 283.714 886.587 282.329C888.169 280.747 888.96 278.868 888.96 276.692C888.96 276.692 888.96 276 888.96 274.615C888.96 273.23 888.96 268.088 888.96 259.186C888.96 255.428 888.96 250.78 888.96 245.241C888.96 239.703 888.96 233.076 888.96 225.362C888.96 214.285 888.96 200.735 888.96 184.713C888.96 168.493 888.96 149.109 888.96 126.559C888.96 124.383 888.169 122.504 886.587 120.922C885.202 119.537 883.422 118.845 881.246 118.845C879.07 118.845 877.29 119.537 875.905 120.922C874.323 122.504 873.532 124.383 873.532 126.559C873.532 126.559 873.532 127.251 873.532 128.636C873.532 129.229 873.532 130.317 873.532 131.9C873.532 134.471 873.532 138.526 873.532 144.065C873.532 147.823 873.532 152.471 873.532 158.01C873.532 163.548 873.532 170.175 873.532 177.889C873.532 188.966 873.532 202.516 873.532 218.538C873.532 234.758 873.532 254.142 873.532 276.692ZM940.587 126.559C940.587 117.262 943.851 109.053 950.379 101.932C956.906 95.0093 964.719 91.5477 973.818 91.5477C975.203 91.5477 976.785 91.5477 978.566 91.5477C980.544 91.5477 981.533 91.5477 981.533 91.5477C982.719 91.5477 984.302 91.5477 986.28 91.5477C988.258 91.5477 989.247 91.5477 989.247 91.5477C998.346 91.5477 1006.16 95.0093 1012.69 101.932C1019.21 109.053 1022.48 117.262 1022.48 126.559C1022.48 149.109 1022.48 168.493 1022.48 184.713C1022.48 200.735 1022.48 214.285 1022.48 225.362C1022.48 233.076 1022.48 239.703 1022.48 245.241C1022.48 250.78 1022.48 255.428 1022.48 259.186C1022.48 268.088 1022.48 273.23 1022.48 274.615C1022.48 276 1022.48 276.692 1022.48 276.692C1022.48 286.78 1019.31 294.89 1012.98 301.022C1006.65 306.956 998.742 310.516 989.247 311.703C988.258 311.901 987.368 312 986.577 312C986.181 312 985.785 312 985.39 312C984.203 311.802 982.917 311.703 981.533 311.703C980.148 311.703 978.862 311.802 977.675 312C976.489 312 975.203 311.901 973.818 311.703C964.324 310.516 956.412 306.956 950.082 301.022C943.752 294.89 940.587 286.78 940.587 276.692C940.587 254.142 940.587 234.758 940.587 218.538C940.587 202.516 940.587 188.966 940.587 177.889C940.587 170.175 940.587 163.548 940.587 158.01C940.587 152.471 940.587 147.823 940.587 144.065C940.587 138.526 940.587 134.471 940.587 131.9C940.587 130.317 940.587 129.229 940.587 128.636C940.587 127.251 940.587 126.559 940.587 126.559ZM973.818 276.692C973.818 278.868 974.609 280.747 976.192 282.329C977.577 283.714 979.357 284.406 981.533 284.406C981.533 284.406 981.533 283.417 981.533 281.439C981.533 279.659 981.533 278.077 981.533 276.692C981.533 276.692 981.533 277.088 981.533 277.879C981.533 278.472 981.533 280.648 981.533 284.406C983.708 284.406 985.489 283.714 986.873 282.329C988.456 280.747 989.247 278.868 989.247 276.692C989.247 276.692 989.247 276 989.247 274.615C989.247 273.23 989.247 268.088 989.247 259.186C989.247 255.428 989.247 250.78 989.247 245.241C989.247 239.703 989.247 233.076 989.247 225.362C989.247 214.285 989.247 200.735 989.247 184.713C989.247 168.493 989.247 149.109 989.247 126.559C989.247 124.383 988.456 122.504 986.873 120.922C985.489 119.537 983.708 118.845 981.533 118.845C979.357 118.845 977.577 119.537 976.192 120.922C974.609 122.504 973.818 124.383 973.818 126.559C973.818 126.559 973.818 127.251 973.818 128.636C973.818 129.229 973.818 130.317 973.818 131.9C973.818 134.471 973.818 138.526 973.818 144.065C973.818 147.823 973.818 152.471 973.818 158.01C973.818 163.548 973.818 170.175 973.818 177.889C973.818 188.966 973.818 202.516 973.818 218.538C973.818 234.758 973.818 254.142 973.818 276.692ZM1040.87 91.5477C1055.71 91.5477 1066.79 91.5477 1074.1 91.5477C1074.1 174.032 1074.1 235.846 1074.1 276.989C1087.75 276.989 1097.94 276.989 1104.67 276.989C1111.39 292.417 1116.43 304.088 1119.8 312C1084.59 312 1058.28 312 1040.87 312C1040.87 238.615 1040.87 183.625 1040.87 147.032C1040.87 122.306 1040.87 103.812 1040.87 91.5477Z" fill="#A10908"/>
<path d="M1108.34 117.515C1111.03 117.515 1115.09 117.515 1120.54 117.515C1120.54 114.754 1120.54 110.65 1120.54 105.201C1123.45 105.201 1127.73 105.201 1133.4 105.201C1133.4 107.962 1133.4 112.067 1133.4 117.515C1136.16 117.515 1140.27 117.515 1145.71 117.515C1145.71 120.494 1145.71 124.961 1145.71 130.918C1142.95 130.918 1138.85 130.955 1133.4 131.027C1133.4 133.788 1133.4 138.001 1133.4 143.668C1130.57 143.668 1126.28 143.668 1120.54 143.668C1120.54 140.835 1120.54 136.585 1120.54 130.918C1117.85 130.918 1113.79 130.918 1108.34 130.918C1108.34 127.94 1108.34 123.472 1108.34 117.515ZM1175.35 172C1174.56 169.312 1173.65 166.225 1172.63 162.738C1171.61 159.178 1170.56 155.618 1169.47 152.059C1167.94 146.755 1166.6 142.07 1165.44 138.001C1164.2 133.861 1163.59 131.79 1163.59 131.79C1163.59 134.478 1163.59 137.602 1163.59 141.162C1163.59 144.721 1163.59 148.245 1163.59 151.732C1163.59 157.035 1163.59 161.757 1163.59 165.898C1163.59 169.966 1163.59 172 1163.59 172C1161.77 172 1159.44 172 1156.61 172C1155.74 172 1154.98 172 1154.32 172C1153.09 172 1152.47 172 1152.47 172C1152.47 166.624 1152.47 160.377 1152.47 153.257C1152.47 146.138 1152.47 139.018 1152.47 131.899C1152.47 128.121 1152.47 124.453 1152.47 120.893C1152.47 117.333 1152.47 113.992 1152.47 110.868C1152.47 109.415 1152.47 107.998 1152.47 106.618C1152.47 102.695 1152.47 99.3897 1152.47 96.7018C1152.47 92.9968 1152.47 91.1443 1152.47 91.1443C1154.29 91.1443 1156.61 91.1443 1159.44 91.1443C1162.21 91.1443 1163.59 91.1443 1163.59 91.1443C1164.38 94.4861 1165.29 98.3727 1166.31 102.804C1167.33 107.236 1168.34 111.631 1169.36 115.989C1170.96 122.673 1172.34 128.557 1173.5 133.643C1174.74 138.728 1175.35 141.27 1175.35 141.27C1176.08 137.929 1176.99 134.042 1178.08 129.611C1179.1 125.252 1180.11 120.857 1181.13 116.425C1182.66 109.815 1184.04 103.93 1185.27 98.7722C1186.43 93.687 1187.01 91.1443 1187.01 91.1443C1188.9 91.1443 1191.23 91.1443 1193.99 91.1443C1196.82 91.1443 1198.24 91.1443 1198.24 91.1443C1198.24 96.5202 1198.24 102.768 1198.24 109.887C1198.24 117.007 1198.24 124.126 1198.24 131.245C1198.24 134.95 1198.24 138.583 1198.24 142.142C1198.24 145.702 1198.24 149.044 1198.24 152.167C1198.24 157.979 1198.24 162.738 1198.24 166.443C1198.24 170.148 1198.24 172 1198.24 172C1196.35 172 1194.02 172 1191.26 172C1188.43 172 1187.01 172 1187.01 172C1187.01 172 1187.01 170.874 1187.01 168.622C1187.01 166.297 1187.01 163.5 1187.01 160.231C1187.01 158.415 1187.01 156.526 1187.01 154.565C1187.01 152.603 1187.01 150.678 1187.01 148.789C1187.01 144.285 1187.01 140.326 1187.01 136.912C1187.01 133.425 1187.01 131.717 1187.01 131.79C1185.85 135.858 1184.83 139.418 1183.96 142.469C1183.09 145.52 1182.29 148.208 1181.57 150.533C1181.06 152.349 1180.59 153.947 1180.15 155.328C1179.79 156.708 1179.46 157.943 1179.17 159.033C1177.93 163.173 1177.21 165.571 1176.99 166.225C1176.84 166.878 1176.3 168.804 1175.35 172ZM1229.4 91.1443C1229.4 96.8108 1229.4 101.061 1229.4 103.894C1223.96 103.894 1219.85 103.894 1217.09 103.894C1217.09 112.829 1217.09 119.549 1217.09 124.053C1220.87 124.053 1223.7 124.053 1225.59 124.053C1225.59 129.502 1225.59 133.57 1225.59 136.258C1221.81 136.258 1218.98 136.258 1217.09 136.258C1217.09 146.428 1217.09 154.056 1217.09 159.142C1220.07 159.142 1222.32 159.142 1223.85 159.142C1226.32 164.881 1228.17 169.167 1229.4 172C1218.51 172 1210.33 172 1204.89 172C1204.89 145.048 1204.89 124.852 1204.89 111.413C1204.89 102.405 1204.89 95.6484 1204.89 91.1443C1215.78 91.1443 1223.96 91.1443 1229.4 91.1443ZM1251.09 91.0354C1251.09 91.0354 1251.2 91.0354 1251.42 91.0354C1251.56 91.0354 1252.18 91.0354 1253.27 91.0354C1256.9 91.0354 1259.95 92.2703 1262.42 94.7403C1264.89 97.2103 1266.13 100.261 1266.13 103.894C1266.13 103.894 1266.13 105.419 1266.13 108.471C1266.13 111.522 1266.13 114.064 1266.13 116.098C1266.13 116.098 1266.13 116.425 1266.13 117.079C1266.13 117.733 1266.13 120.021 1266.13 123.944C1266.13 126.124 1265.76 128.521 1265.04 131.136C1264.24 133.752 1262.2 135.459 1258.93 136.258C1258.93 136.258 1259.55 138.074 1260.79 141.706C1262.02 145.339 1263.44 149.516 1265.04 154.238C1266.13 157.362 1267.22 160.486 1268.31 163.609C1269.4 166.733 1270.34 169.494 1271.14 171.891C1271.14 171.891 1270.49 171.891 1269.18 171.891C1268.45 171.891 1267.58 171.891 1266.56 171.891C1263.51 171.891 1260.97 171.891 1258.93 171.891C1258.93 171.891 1258.39 170.075 1257.3 166.443C1256.21 162.81 1254.98 158.633 1253.59 153.911C1252.65 150.787 1251.71 147.627 1250.76 144.431C1249.82 141.307 1248.98 138.583 1248.26 136.258C1248.26 136.258 1248.26 138.074 1248.26 141.706C1248.26 145.339 1248.26 149.516 1248.26 154.238C1248.26 157.362 1248.26 160.486 1248.26 163.609C1248.26 166.733 1248.26 169.494 1248.26 171.891C1248.26 171.891 1246.73 171.891 1243.68 171.891C1240.63 171.891 1238.08 171.891 1236.05 171.891C1236.05 171.891 1236.05 171.346 1236.05 170.256C1236.05 169.094 1236.05 167.532 1236.05 165.571C1236.05 163.173 1236.05 160.304 1236.05 156.962C1236.05 155.001 1236.05 152.93 1236.05 150.751C1236.05 144.576 1236.05 138.038 1236.05 131.136C1236.05 124.017 1236.05 116.898 1236.05 109.778C1236.05 102.659 1236.05 96.4112 1236.05 91.0354C1236.05 91.0354 1236.81 91.0354 1238.34 91.0354C1239.86 91.0354 1241.61 91.0354 1243.57 91.0354C1244.95 91.0354 1246.29 91.0354 1247.6 91.0354C1248.91 91.0354 1250.07 91.0354 1251.09 91.0354ZM1248.26 123.944C1248.26 123.944 1248.44 123.944 1248.8 123.944C1248.95 123.944 1249.13 123.944 1249.35 123.944C1250.07 123.944 1250.65 123.944 1251.09 123.944C1251.89 123.944 1252.54 123.654 1253.05 123.073C1253.63 122.564 1253.92 121.91 1253.92 121.111C1253.92 121.111 1253.92 120.929 1253.92 120.566C1253.92 120.13 1253.92 118.677 1253.92 116.207C1253.92 115.118 1253.92 113.81 1253.92 112.284C1253.92 110.686 1253.92 108.797 1253.92 106.618C1253.92 105.819 1253.63 105.165 1253.05 104.657C1252.54 104.148 1251.89 103.894 1251.09 103.894C1251.09 103.894 1250.73 103.894 1250 103.894C1249.35 103.894 1248.76 103.894 1248.26 103.894C1248.26 103.894 1248.26 104.838 1248.26 106.727C1248.26 106.8 1248.26 106.872 1248.26 106.945C1248.26 108.979 1248.26 111.304 1248.26 113.919C1248.26 115.735 1248.26 117.515 1248.26 119.259C1248.26 121.002 1248.26 122.564 1248.26 123.944ZM1293.59 103.567C1293.01 102.477 1292.06 101.932 1290.75 101.932C1289.37 101.932 1288.43 102.477 1287.92 103.567C1287.92 103.567 1287.92 104.548 1287.92 106.509C1287.92 108.398 1287.92 109.996 1287.92 111.304C1287.92 111.304 1287.92 113.265 1287.92 117.188C1287.92 121.038 1287.92 125.47 1287.92 130.482C1287.92 133.897 1287.92 137.275 1287.92 140.617C1287.92 143.958 1287.92 146.864 1287.92 149.334C1287.92 149.334 1287.92 149.734 1287.92 150.533C1287.92 151.405 1287.92 154.238 1287.92 159.033C1288.28 160.34 1289.23 160.994 1290.75 160.994C1292.28 160.994 1293.22 160.34 1293.59 159.033C1293.59 159.033 1293.59 157.834 1293.59 155.437C1293.59 153.039 1293.59 151.005 1293.59 149.334C1293.59 149.334 1295.11 149.334 1298.16 149.334C1301.21 149.334 1303.76 149.334 1305.79 149.334C1305.79 149.334 1305.79 149.734 1305.79 150.533C1305.79 151.405 1305.79 154.238 1305.79 159.033C1305.79 162.52 1304.63 165.534 1302.3 168.077C1299.98 170.62 1297.07 171.891 1293.59 171.891C1293.59 171.891 1293.48 171.891 1293.26 171.891C1293.11 171.891 1292.97 171.891 1292.82 171.891C1292.39 171.891 1290.75 171.891 1287.92 171.891C1284.51 171.891 1281.6 170.62 1279.2 168.077C1276.88 165.462 1275.72 162.447 1275.72 159.033C1275.72 159.033 1275.72 158.778 1275.72 158.27C1275.72 158.052 1275.72 157.652 1275.72 157.071C1275.72 156.127 1275.72 154.637 1275.72 152.603C1275.72 151.15 1275.72 149.407 1275.72 147.373C1275.72 145.339 1275.72 142.905 1275.72 140.072C1275.72 136.004 1275.72 130.991 1275.72 125.034C1275.72 119.077 1275.72 111.921 1275.72 103.567C1275.72 100.225 1276.88 97.283 1279.2 94.7403C1281.6 92.2703 1284.51 91.0354 1287.92 91.0354C1287.92 91.0354 1288.17 91.0354 1288.68 91.0354C1289.12 91.0354 1290.75 91.0354 1293.59 91.0354C1297.07 91.0354 1299.98 92.2703 1302.3 94.7403C1304.63 97.2103 1305.79 100.153 1305.79 103.567C1305.79 103.567 1305.79 104.511 1305.79 106.4C1305.79 108.289 1305.79 109.851 1305.79 111.086C1305.79 111.086 1304.27 111.086 1301.21 111.086C1298.16 111.086 1295.62 111.086 1293.59 111.086C1293.59 111.086 1293.59 110.795 1293.59 110.214C1293.59 109.56 1293.59 107.345 1293.59 103.567ZM1312.55 91.0354C1318 91.0354 1322.06 91.0354 1324.75 91.0354C1324.75 106.654 1324.75 118.387 1324.75 126.233C1327.22 126.233 1329.11 126.233 1330.42 126.233C1330.42 110.614 1330.42 98.8812 1330.42 91.0354C1335.87 91.0354 1339.94 91.0354 1342.62 91.0354C1342.62 126.995 1342.62 153.984 1342.62 172C1337.17 172 1333.11 172 1330.42 172C1330.42 156.817 1330.42 145.448 1330.42 137.892C1327.88 137.892 1325.99 137.892 1324.75 137.892C1324.75 153.003 1324.75 164.372 1324.75 172C1319.3 172 1315.24 172 1312.55 172C1312.55 145.048 1312.55 124.852 1312.55 111.413C1312.55 102.332 1312.55 95.5394 1312.55 91.0354Z" fill="#6D3001"/>
<path d="M1105.38 214.223C1108.07 214.223 1112.13 214.223 1117.58 214.223C1117.58 211.462 1117.58 207.357 1117.58 201.909C1120.49 201.909 1124.77 201.909 1130.44 201.909C1130.44 204.67 1130.44 208.774 1130.44 214.223C1133.2 214.223 1137.31 214.223 1142.75 214.223C1142.75 217.201 1142.75 221.669 1142.75 227.626C1139.99 227.626 1135.89 227.662 1130.44 227.735C1130.44 230.495 1130.44 234.709 1130.44 240.375C1127.61 240.375 1123.32 240.375 1117.58 240.375C1117.58 237.542 1117.58 233.292 1117.58 227.626C1114.89 227.626 1110.83 227.626 1105.38 227.626C1105.38 224.647 1105.38 220.18 1105.38 214.223ZM1167.38 200.383C1166.8 199.294 1165.86 198.749 1164.55 198.749C1163.17 198.749 1162.22 199.294 1161.72 200.383C1161.72 200.383 1161.72 201.328 1161.72 203.217C1161.72 205.178 1161.72 206.813 1161.72 208.12C1161.72 208.12 1161.72 210.045 1161.72 213.896C1161.72 217.819 1161.72 222.286 1161.72 227.299C1161.72 230.641 1161.72 233.982 1161.72 237.324C1161.72 240.666 1161.72 243.608 1161.72 246.151C1161.72 246.151 1161.72 246.55 1161.72 247.349C1161.72 248.149 1161.72 250.982 1161.72 255.849C1162.08 257.157 1163.02 257.811 1164.55 257.811C1166.07 257.811 1167.02 257.157 1167.38 255.849C1167.38 255.849 1167.38 254.432 1167.38 251.599C1167.38 248.839 1167.38 246.514 1167.38 244.625C1167.38 244.625 1167.24 244.625 1166.95 244.625C1166.66 244.625 1166.4 244.625 1166.18 244.625C1166.18 244.625 1165.86 243.172 1165.2 240.266C1164.48 237.361 1163.89 234.927 1163.46 232.965C1163.46 232.965 1164.26 232.965 1165.86 232.965C1167.53 232.965 1169.45 232.965 1171.63 232.965C1173.01 232.965 1174.43 232.965 1175.88 232.965C1177.26 232.965 1178.5 232.965 1179.59 232.965C1179.59 232.965 1179.59 233.292 1179.59 233.946C1179.59 234.6 1179.59 236.888 1179.59 240.811C1179.59 242.482 1179.59 244.516 1179.59 246.914C1179.59 249.384 1179.59 252.362 1179.59 255.849C1179.59 259.263 1178.42 262.278 1176.1 264.894C1173.77 267.436 1170.87 268.708 1167.38 268.708C1167.38 268.708 1167.27 268.708 1167.06 268.708C1166.91 268.708 1166.76 268.708 1166.62 268.708C1166.18 268.708 1164.55 268.708 1161.72 268.708C1158.3 268.708 1155.4 267.4 1153 264.785C1150.67 262.242 1149.51 259.263 1149.51 255.849C1149.51 255.849 1149.51 255.558 1149.51 254.977C1149.51 254.832 1149.51 254.469 1149.51 253.888C1149.51 252.871 1149.51 251.345 1149.51 249.311C1149.51 247.931 1149.51 246.223 1149.51 244.189C1149.51 242.155 1149.51 239.685 1149.51 236.779C1149.51 232.711 1149.51 227.699 1149.51 221.741C1149.51 215.784 1149.51 208.665 1149.51 200.383C1149.51 196.969 1150.67 194.027 1153 191.557C1155.4 189.014 1158.3 187.743 1161.72 187.743C1161.72 187.743 1161.97 187.743 1162.48 187.743C1162.91 187.743 1164.55 187.743 1167.38 187.743C1170.87 187.743 1173.77 188.978 1176.1 191.448C1178.42 193.918 1179.59 196.896 1179.59 200.383C1179.59 200.383 1179.59 201.328 1179.59 203.217C1179.59 205.033 1179.59 206.595 1179.59 207.902C1179.59 207.902 1178.06 207.902 1175.01 207.902C1171.96 207.902 1169.42 207.902 1167.38 207.902C1167.38 207.902 1167.38 207.575 1167.38 206.922C1167.38 206.268 1167.38 204.088 1167.38 200.383ZM1186.34 200.601C1186.34 197.187 1187.54 194.172 1189.94 191.557C1192.34 189.014 1195.21 187.743 1198.55 187.743C1199.06 187.743 1199.64 187.743 1200.29 187.743C1201.02 187.743 1201.38 187.743 1201.38 187.743C1201.82 187.743 1202.4 187.743 1203.12 187.743C1203.85 187.743 1204.21 187.743 1204.21 187.743C1207.56 187.743 1210.43 189.014 1212.82 191.557C1215.22 194.172 1216.42 197.187 1216.42 200.601C1216.42 208.883 1216.42 216.002 1216.42 221.959C1216.42 227.844 1216.42 232.82 1216.42 236.888C1216.42 239.722 1216.42 242.155 1216.42 244.189C1216.42 246.223 1216.42 247.931 1216.42 249.311C1216.42 252.58 1216.42 254.469 1216.42 254.977C1216.42 255.486 1216.42 255.74 1216.42 255.74C1216.42 259.445 1215.26 262.424 1212.93 264.676C1210.61 266.855 1207.7 268.163 1204.21 268.599C1203.85 268.671 1203.52 268.708 1203.23 268.708C1203.09 268.708 1202.94 268.708 1202.8 268.708C1202.36 268.635 1201.89 268.599 1201.38 268.599C1200.87 268.599 1200.4 268.635 1199.96 268.708C1199.53 268.708 1199.06 268.671 1198.55 268.599C1195.06 268.163 1192.15 266.855 1189.83 264.676C1187.51 262.424 1186.34 259.445 1186.34 255.74C1186.34 247.458 1186.34 240.339 1186.34 234.382C1186.34 228.498 1186.34 223.521 1186.34 219.453C1186.34 216.62 1186.34 214.186 1186.34 212.152C1186.34 210.118 1186.34 208.411 1186.34 207.031C1186.34 204.996 1186.34 203.507 1186.34 202.563C1186.34 201.982 1186.34 201.582 1186.34 201.364C1186.34 200.856 1186.34 200.601 1186.34 200.601ZM1198.55 255.74C1198.55 256.539 1198.84 257.229 1199.42 257.811C1199.93 258.319 1200.58 258.573 1201.38 258.573C1201.38 258.573 1201.38 258.21 1201.38 257.484C1201.38 256.83 1201.38 256.249 1201.38 255.74C1201.38 255.74 1201.38 255.885 1201.38 256.176C1201.38 256.394 1201.38 257.193 1201.38 258.573C1202.18 258.573 1202.83 258.319 1203.34 257.811C1203.92 257.229 1204.21 256.539 1204.21 255.74C1204.21 255.74 1204.21 255.486 1204.21 254.977C1204.21 254.469 1204.21 252.58 1204.21 249.311C1204.21 247.931 1204.21 246.223 1204.21 244.189C1204.21 242.155 1204.21 239.722 1204.21 236.888C1204.21 232.82 1204.21 227.844 1204.21 221.959C1204.21 216.002 1204.21 208.883 1204.21 200.601C1204.21 199.802 1203.92 199.112 1203.34 198.531C1202.83 198.022 1202.18 197.768 1201.38 197.768C1200.58 197.768 1199.93 198.022 1199.42 198.531C1198.84 199.112 1198.55 199.802 1198.55 200.601C1198.55 200.601 1198.55 200.856 1198.55 201.364C1198.55 201.582 1198.55 201.982 1198.55 202.563C1198.55 203.507 1198.55 204.996 1198.55 207.031C1198.55 208.411 1198.55 210.118 1198.55 212.152C1198.55 214.186 1198.55 216.62 1198.55 219.453C1198.55 223.521 1198.55 228.498 1198.55 234.382C1198.55 240.339 1198.55 247.458 1198.55 255.74ZM1223.17 200.601C1223.17 197.187 1224.37 194.172 1226.77 191.557C1229.17 189.014 1232.04 187.743 1235.38 187.743C1235.89 187.743 1236.47 187.743 1237.12 187.743C1237.85 187.743 1238.21 187.743 1238.21 187.743C1238.65 187.743 1239.23 187.743 1239.96 187.743C1240.68 187.743 1241.05 187.743 1241.05 187.743C1244.39 187.743 1247.26 189.014 1249.65 191.557C1252.05 194.172 1253.25 197.187 1253.25 200.601C1253.25 208.883 1253.25 216.002 1253.25 221.959C1253.25 227.844 1253.25 232.82 1253.25 236.888C1253.25 239.722 1253.25 242.155 1253.25 244.189C1253.25 246.223 1253.25 247.931 1253.25 249.311C1253.25 252.58 1253.25 254.469 1253.25 254.977C1253.25 255.486 1253.25 255.74 1253.25 255.74C1253.25 259.445 1252.09 262.424 1249.76 264.676C1247.44 266.855 1244.53 268.163 1241.05 268.599C1240.68 268.671 1240.36 268.708 1240.06 268.708C1239.92 268.708 1239.77 268.708 1239.63 268.708C1239.19 268.635 1238.72 268.599 1238.21 268.599C1237.7 268.599 1237.23 268.635 1236.8 268.708C1236.36 268.708 1235.89 268.671 1235.38 268.599C1231.89 268.163 1228.99 266.855 1226.66 264.676C1224.34 262.424 1223.17 259.445 1223.17 255.74C1223.17 247.458 1223.17 240.339 1223.17 234.382C1223.17 228.498 1223.17 223.521 1223.17 219.453C1223.17 216.62 1223.17 214.186 1223.17 212.152C1223.17 210.118 1223.17 208.411 1223.17 207.031C1223.17 204.996 1223.17 203.507 1223.17 202.563C1223.17 201.982 1223.17 201.582 1223.17 201.364C1223.17 200.856 1223.17 200.601 1223.17 200.601ZM1235.38 255.74C1235.38 256.539 1235.67 257.229 1236.25 257.811C1236.76 258.319 1237.41 258.573 1238.21 258.573C1238.21 258.573 1238.21 258.21 1238.21 257.484C1238.21 256.83 1238.21 256.249 1238.21 255.74C1238.21 255.74 1238.21 255.885 1238.21 256.176C1238.21 256.394 1238.21 257.193 1238.21 258.573C1239.01 258.573 1239.67 258.319 1240.17 257.811C1240.76 257.229 1241.05 256.539 1241.05 255.74C1241.05 255.74 1241.05 255.486 1241.05 254.977C1241.05 254.469 1241.05 252.58 1241.05 249.311C1241.05 247.931 1241.05 246.223 1241.05 244.189C1241.05 242.155 1241.05 239.722 1241.05 236.888C1241.05 232.82 1241.05 227.844 1241.05 221.959C1241.05 216.002 1241.05 208.883 1241.05 200.601C1241.05 199.802 1240.76 199.112 1240.17 198.531C1239.67 198.022 1239.01 197.768 1238.21 197.768C1237.41 197.768 1236.76 198.022 1236.25 198.531C1235.67 199.112 1235.38 199.802 1235.38 200.601C1235.38 200.601 1235.38 200.856 1235.38 201.364C1235.38 201.582 1235.38 201.982 1235.38 202.563C1235.38 203.507 1235.38 204.996 1235.38 207.031C1235.38 208.411 1235.38 210.118 1235.38 212.152C1235.38 214.186 1235.38 216.62 1235.38 219.453C1235.38 223.521 1235.38 228.498 1235.38 234.382C1235.38 240.339 1235.38 247.458 1235.38 255.74ZM1260.01 187.852C1261.02 187.852 1262.19 187.852 1263.49 187.852C1264.8 187.852 1266.11 187.852 1267.42 187.852C1269.45 187.852 1271.23 187.852 1272.76 187.852C1274.28 187.852 1275.04 187.852 1275.04 187.852C1275.48 187.852 1276.06 187.852 1276.79 187.852C1277.51 187.852 1277.88 187.852 1277.88 187.852C1281.22 187.852 1284.09 189.159 1286.49 191.775C1288.88 194.317 1290.08 197.296 1290.08 200.71C1290.08 209.065 1290.08 216.184 1290.08 222.068C1290.08 228.025 1290.08 233.002 1290.08 236.997C1290.08 239.903 1290.08 242.373 1290.08 244.407C1290.08 246.441 1290.08 248.112 1290.08 249.42C1290.08 252.689 1290.08 254.614 1290.08 255.195C1290.08 255.704 1290.08 255.958 1290.08 255.958C1290.08 259.663 1288.92 262.605 1286.6 264.785C1284.27 267.037 1281.36 268.381 1277.88 268.816C1277.51 268.816 1277.19 268.816 1276.9 268.816C1276.75 268.816 1276.61 268.816 1276.46 268.816C1276.02 268.816 1275.55 268.816 1275.04 268.816C1274.03 268.816 1272.86 268.816 1271.56 268.816C1270.25 268.816 1268.91 268.816 1267.53 268.816C1265.56 268.816 1263.82 268.816 1262.29 268.816C1260.77 268.816 1260.01 268.816 1260.01 268.816C1260.01 263.441 1260.01 257.193 1260.01 250.074C1260.01 242.954 1260.01 235.835 1260.01 228.716C1260.01 224.938 1260.01 221.269 1260.01 217.71C1260.01 214.15 1260.01 210.808 1260.01 207.684C1260.01 206.159 1260.01 204.742 1260.01 203.435C1260.01 199.512 1260.01 196.17 1260.01 193.409C1260.01 189.704 1260.01 187.852 1260.01 187.852ZM1272.21 255.849C1272.21 255.849 1272.39 255.849 1272.76 255.849C1272.9 255.849 1273.08 255.849 1273.3 255.849C1274.03 255.849 1274.61 255.849 1275.04 255.849C1275.84 255.849 1276.5 255.558 1277.01 254.977C1277.59 254.469 1277.88 253.815 1277.88 253.016C1277.88 253.016 1277.88 252.798 1277.88 252.362C1277.88 251.854 1277.88 250.146 1277.88 247.24C1277.88 246.005 1277.88 244.48 1277.88 242.664C1277.88 240.775 1277.88 238.559 1277.88 236.017C1277.88 232.384 1277.88 227.916 1277.88 222.613C1277.88 217.237 1277.88 210.844 1277.88 203.435C1277.88 202.635 1277.59 201.945 1277.01 201.364C1276.5 200.856 1275.84 200.601 1275.04 200.601C1275.04 200.601 1274.68 200.601 1273.95 200.601C1273.3 200.601 1272.72 200.601 1272.21 200.601C1272.21 200.601 1272.21 203.326 1272.21 208.774C1272.21 208.847 1272.21 208.956 1272.21 209.101C1272.21 214.695 1272.21 221.124 1272.21 228.389C1272.21 233.256 1272.21 238.123 1272.21 242.991C1272.21 247.858 1272.21 252.144 1272.21 255.849ZM1309.04 187.743C1309.04 187.743 1309.04 188.288 1309.04 189.377C1309.04 190.54 1309.04 192.102 1309.04 194.063C1309.04 197.841 1309.04 202.781 1309.04 208.883C1309.04 215.058 1309.04 221.596 1309.04 228.498C1309.04 235.617 1309.04 242.736 1309.04 249.856C1309.04 256.975 1309.04 263.223 1309.04 268.599C1309.04 268.599 1308.39 268.599 1307.08 268.599C1306.43 268.599 1305.56 268.599 1304.47 268.599C1301.41 268.599 1298.87 268.599 1296.84 268.599C1296.84 268.599 1296.84 268.054 1296.84 266.964C1296.84 265.802 1296.84 264.24 1296.84 262.278C1296.84 259.881 1296.84 257.011 1296.84 253.67C1296.84 251.708 1296.84 249.638 1296.84 247.458C1296.84 241.283 1296.84 234.745 1296.84 227.844C1296.84 220.724 1296.84 213.605 1296.84 206.486C1296.84 199.366 1296.84 193.119 1296.84 187.743C1296.84 187.743 1297.38 187.743 1298.47 187.743C1299.49 187.743 1300.69 187.743 1302.07 187.743C1303.74 187.743 1305.34 187.743 1306.86 187.743C1308.32 187.743 1309.04 187.743 1309.04 187.743ZM1340.43 187.852C1340.43 193.518 1340.43 197.768 1340.43 200.601C1334.98 200.601 1330.87 200.601 1328.11 200.601C1328.11 209.537 1328.11 216.257 1328.11 220.761C1331.89 220.761 1334.72 220.761 1336.61 220.761C1336.61 226.209 1336.61 230.277 1336.61 232.965C1332.83 232.965 1330 232.965 1328.11 232.965C1328.11 243.136 1328.11 250.764 1328.11 255.849C1331.09 255.849 1333.34 255.849 1334.87 255.849C1337.34 261.588 1339.19 265.874 1340.43 268.708C1329.53 268.708 1321.36 268.708 1315.91 268.708C1315.91 241.756 1315.91 221.56 1315.91 208.12C1315.91 199.112 1315.91 192.356 1315.91 187.852C1326.8 187.852 1334.98 187.852 1340.43 187.852ZM1353.18 225.12C1351.14 223.739 1349.69 222.032 1348.82 219.998C1347.95 218.037 1347.36 215.639 1347.07 212.806C1347.07 212.806 1347.07 212.116 1347.07 210.736C1347.07 210.082 1347.07 209.21 1347.07 208.12C1347.07 204.996 1347.07 202.381 1347.07 200.274C1347.07 196.933 1348.24 193.99 1350.56 191.448C1352.96 188.978 1355.86 187.743 1359.28 187.743C1359.28 187.743 1359.53 187.743 1360.04 187.743C1360.48 187.743 1362.11 187.743 1364.94 187.743C1368.43 187.743 1371.34 188.978 1373.66 191.448C1375.99 193.918 1377.15 196.86 1377.15 200.274C1377.15 200.274 1377.15 201.146 1377.15 202.89C1377.15 204.633 1377.15 206.086 1377.15 207.248C1377.15 207.248 1375.62 207.248 1372.57 207.248C1369.52 207.248 1366.98 207.248 1364.94 207.248C1364.94 207.248 1364.94 207.031 1364.94 206.595C1364.94 206.159 1364.94 204.706 1364.94 202.236C1364.36 201.146 1363.42 200.601 1362.11 200.601C1360.73 200.601 1359.79 201.146 1359.28 202.236C1359.28 202.236 1359.28 202.526 1359.28 203.108C1359.28 203.616 1359.28 205.541 1359.28 208.883C1359.28 211.934 1359.97 214.295 1361.35 215.966C1362.73 217.71 1364.65 219.453 1367.12 221.197C1370.25 223.449 1372.72 225.737 1374.53 228.062C1376.28 230.386 1377.15 233.474 1377.15 237.324C1377.15 237.324 1377.15 236.779 1377.15 235.69C1377.15 234.6 1377.15 233.692 1377.15 232.965C1377.15 232.965 1377.15 234.128 1377.15 236.452C1377.15 238.777 1377.15 241.429 1377.15 244.407C1377.15 246.441 1377.15 248.475 1377.15 250.51C1377.15 252.471 1377.15 254.215 1377.15 255.74C1377.15 259.154 1375.95 262.169 1373.55 264.785C1371.16 267.327 1368.29 268.599 1364.94 268.599C1364.94 268.599 1364.62 268.599 1363.96 268.599C1363.67 268.599 1363.27 268.599 1362.76 268.599C1361.38 268.599 1360.22 268.599 1359.28 268.599C1355.94 268.599 1353.07 267.327 1350.67 264.785C1348.27 262.169 1347.07 259.154 1347.07 255.74C1347.07 255.74 1347.07 254.541 1347.07 252.144C1347.07 249.747 1347.07 247.713 1347.07 246.042C1347.07 246.042 1348.6 246.042 1351.65 246.042C1354.7 246.042 1357.24 246.042 1359.28 246.042C1359.28 246.042 1359.28 246.369 1359.28 247.023C1359.28 247.604 1359.28 249.71 1359.28 253.343C1359.28 254.941 1360.22 255.776 1362.11 255.849C1364 255.849 1364.94 255.014 1364.94 253.343C1364.94 253.343 1364.94 253.125 1364.94 252.689C1364.94 252.253 1364.94 250.691 1364.94 248.003C1364.94 243.644 1364.51 240.048 1363.64 237.215C1362.76 234.309 1360.59 231.403 1357.1 228.498C1357.1 228.498 1356.92 228.352 1356.55 228.062C1356.26 227.771 1355.14 226.79 1353.18 225.12Z" fill="#6D3001"/>
</svg>
